HIERARCHY
ROOT Hips
{
 OFFSET 0.000000 0.000000 0.000000
 CHANNELS 6 Xposition Yposition Zposition Yrotation Xrotation Zrotation
 JOINT Chest
 {
  OFFSET 0.000000 9.585900 0.002600
  CHANNELS 3 Yrotation Xrotation Zrotation
  JOINT Chest2
  {
   OFFSET 0.000000 9.601200 -0.005300
   CHANNELS 3 Yrotation Xrotation Zrotation
   JOINT Chest3
   {
    OFFSET 0.000000 9.561800 0.000000
    CHANNELS 3 Yrotation Xrotation Zrotation
    JOINT Chest4
    {
     OFFSET 0.000000 9.552100 0.000000
     CHANNELS 3 Yrotation Xrotation Zrotation
     JOINT Neck
     {
      OFFSET 0.000000 14.453000 0.000000
      CHANNELS 3 Yrotation Xrotation Zrotation
      JOINT Head
      {
       OFFSET 0.000000 8.936500 -0.011300
       CHANNELS 3 Yrotation Xrotation Zrotation
       End Site
       {
        OFFSET 0.000000 17.073600 -0.006000
       }
      }
     }
     JOINT RightCollar
     {
      OFFSET -2.921100 9.558500 0.000000
      CHANNELS 3 Yrotation Xrotation Zrotation
      JOINT RightShoulder
      {
       OFFSET -13.519700 0.000000 0.000000
       CHANNELS 3 Yrotation Xrotation Zrotation
       JOINT RightElbow
       {
        OFFSET 0.000000 -29.696600 0.000000
        CHANNELS 3 Yrotation Xrotation Zrotation
        JOINT RightWrist
        {
         OFFSET 0.000000 -24.004700 0.000000
         CHANNELS 3 Yrotation Xrotation Zrotation
         End Site
         {
          OFFSET 0.000000 -17.728500 0.000000
         }
        }
       }
      }
     }
     JOINT LeftCollar
     {
      OFFSET 2.921100 9.558500 0.000000
      CHANNELS 3 Yrotation Xrotation Zrotation
      JOINT LeftShoulder
      {
       OFFSET 13.519700 0.000000 0.000000
       CHANNELS 3 Yrotation Xrotation Zrotation
       JOINT LeftElbow
       {
        OFFSET 0.000000 -29.696600 0.000000
        CHANNELS 3 Yrotation Xrotation Zrotation
        JOINT LeftWrist
        {
         OFFSET 0.000000 -24.004700 0.000000
         CHANNELS 3 Yrotation Xrotation Zrotation
         End Site
         {
          OFFSET 0.000000 -17.728500 0.000000
         }
        }
       }
      }
     }
    }
   }
  }
 }
 JOINT RightHip
 {
  OFFSET -7.771700 -0.012900 -0.001300
  CHANNELS 3 Yrotation Xrotation Zrotation
  JOINT RightKnee
  {
   OFFSET 0.000000 -40.869800 0.001200
   CHANNELS 3 Yrotation Xrotation Zrotation
   JOINT RightAnkle
   {
    OFFSET 0.000000 -39.717900 0.002100
    CHANNELS 3 Yrotation Xrotation Zrotation
    JOINT RightToe
    {
     OFFSET 0.000000 -4.965400 11.033500
     CHANNELS 3 Yrotation Xrotation Zrotation
     End Site
     {
      OFFSET 0.000000 -1.423100 5.872300
     }
    }
   }
  }
 }
 JOINT LeftHip
 {
  OFFSET 7.771700 -0.012900 -0.001300
  CHANNELS 3 Yrotation Xrotation Zrotation
  JOINT LeftKnee
  {
   OFFSET 0.000000 -40.869800 0.001200
   CHANNELS 3 Yrotation Xrotation Zrotation
   JOINT LeftAnkle
   {
    OFFSET 0.000000 -39.717900 0.002100
    CHANNELS 3 Yrotation Xrotation Zrotation
    JOINT LeftToe
    {
     OFFSET 0.000000 -4.965400 11.033500
     CHANNELS 3 Yrotation Xrotation Zrotation
     End Site
     {
      OFFSET 0.000000 -1.423100 5.872300
     }
    }
   }
  }
 }
}
MOTION
Frames: 15
Frame Time: 0.008333
-24.111378 48.229441 28.620382 175.831974 -32.097391 -1.815307 -1.127716 12.226838 2.455201 -0.795254 7.021753 1.827283 -0.971052 8.759016 2.276766 -0.803778 7.004340 1.830346 -1.540069 23.545874 -2.154879 -2.215737 8.033848 -3.569706 8.492871 2.461191 -2.782778 0.859682 -10.474073 -5.325372 -134.989653 -84.519922 148.624265 4.577204 -1.800123 -31.485891 -5.317027 -1.792695 -3.431632 10.317637 -4.900895 -1.853767 62.276781 -88.834562 -87.973733 -0.111329 11.234572 31.478749 29.992480 -47.546927 -29.611438 -112.667166 67.678669 -103.451242 -1.528369 -3.463528 6.879093 0.110316 -0.762696 0.275459 -11.567649 -51.786870 14.797917 114.471527 78.965242 112.016537 -3.559060 -11.312045 -4.828997 0.240053 0.740633 0.063837
-24.097785 48.228878 28.626198 175.868391 -32.055818 -1.820615 -1.135280 12.237380 2.438263 -0.784626 7.058017 1.812458 -0.967514 8.783127 2.263788 -0.800820 7.023622 1.819948 -1.525004 23.496683 -2.145262 -2.196612 7.828274 -3.469625 8.471853 2.388612 -2.820523 0.682872 -10.271325 -5.302094 -135.121004 -84.624350 148.716068 4.571655 -1.883489 -31.588722 -5.303079 -1.816145 -3.426920 10.430066 -4.972766 -1.798207 73.173853 -89.237283 -98.829629 -0.235603 11.084678 31.510141 30.082372 -47.583174 -29.596095 -112.606507 67.619587 -103.447634 -1.582541 -3.401452 6.915260 0.098364 -0.781202 0.309795 -11.621691 -51.821650 14.798698 114.234942 78.923798 111.807814 -3.621121 -11.306276 -4.874907 0.282871 0.750621 0.088304
-24.079439 48.228868 28.633210 175.912293 -32.007075 -1.834494 -1.160007 12.224121 2.425667 -0.757958 7.108261 1.792474 -0.961372 8.804002 2.249067 -0.795682 7.040286 1.808179 -1.515941 23.405701 -2.090985 -2.188868 7.691421 -3.408918 8.445527 2.286296 -2.806439 0.539864 -10.039572 -5.330618 -135.153656 -84.719810 148.704187 4.568388 -1.976548 -31.694487 -5.299651 -1.844770 -3.423349 10.462996 -5.054416 -1.739287 94.990660 -89.486860 -120.549861 -0.347776 10.927572 31.469417 30.156614 -47.628919 -29.581206 -112.560087 67.545314 -103.441227 -1.634207 -3.358839 6.923927 0.102967 -0.789563 0.350668 -11.688854 -51.861245 14.812162 114.024769 78.889141 111.618792 -3.657356 -11.310444 -4.907419 0.304291 0.771548 0.096168
-24.057419 48.231561 28.637567 175.939667 -31.975991 -1.843217 -1.141353 12.259826 2.416499 -0.751343 7.122313 1.774565 -0.952636 8.822226 2.232804 -0.788547 7.054899 1.795178 -1.511310 23.334910 -2.047191 -2.190453 7.560082 -3.330929 8.411963 2.186910 -2.780155 0.436622 -9.812012 -5.367735 -135.095217 -84.805291 148.580594 4.558301 -2.070325 -31.802849 -5.307501 -1.875849 -3.417020 10.495669 -5.128611 -1.679297 122.607459 -89.543333 -148.091472 -0.424279 10.765493 31.383266 30.224015 -47.660175 -29.555249 -112.535901 67.459080 -103.421980 -1.717829 -3.336965 6.908488 0.170453 -0.785225 0.303297 -11.758783 -51.872499 14.835868 113.867399 78.869565 111.453751 -3.624967 -11.326586 -4.919862 0.275675 0.802117 0.085240
-24.033984 48.235236 28.641391 175.957852 -31.944017 -1.845183 -1.117127 12.295511 2.399121 -0.739220 7.132584 1.757979 -0.941591 8.838850 2.214946 -0.779631 7.068267 1.780789 -1.510454 23.282114 -2.015572 -2.199796 7.430123 -3.238630 8.366447 2.104763 -2.782152 0.373698 -9.605248 -5.370598 -134.901020 -84.875772 148.306065 4.533677 -2.155123 -31.911351 -5.325361 -1.909086 -3.408010 10.676442 -5.161348 -1.694272 144.131088 -89.484725 -169.704652 -0.455921 10.610300 31.277830 30.297143 -47.691429 -29.538941 -112.515190 67.379942 -103.408526 -1.777906 -3.312146 6.900640 0.212702 -0.788300 0.307616 -11.810538 -51.886480 14.851875 113.708007 78.852298 111.291402 -3.582458 -11.332683 -4.926452 0.236397 0.824051 0.066768
-24.021767 48.237478 28.646442 175.992945 -31.888673 -1.785920 -1.083503 12.350281 2.299296 -0.759484 7.097222 1.758436 -0.928217 8.854077 2.195188 -0.768748 7.080531 1.764800 -1.515875 23.222661 -1.972848 -2.219531 7.319748 -3.159854 8.334568 2.025206 -2.845136 0.312240 -9.409528 -5.303896 -134.527665 -84.930201 147.850183 4.494991 -2.225626 -32.016960 -5.352081 -1.944004 -3.396039 10.774299 -5.202375 -1.701640 149.237982 -89.402758 -174.838891 -0.447352 10.474730 31.173966 30.432974 -47.708267 -29.631587 -112.477575 67.349162 -103.459086 -1.740350 -3.261304 6.993164 0.112175 -0.814555 0.295688 -11.783730 -51.937057 14.748683 113.353819 78.813402 110.976125 -3.660546 -11.300404 -4.994542 0.294800 0.821159 0.094874
-24.006979 48.243408 28.645696 176.000460 -31.867709 -1.726495 -1.047078 12.409698 2.217425 -0.782796 7.053080 1.768839 -0.890552 8.907664 2.148930 -0.755736 7.092050 1.747849 -1.529398 23.165914 -1.931815 -2.224074 7.243597 -3.081199 8.297561 1.929484 -2.862963 0.276823 -9.210706 -5.277420 -134.007353 -84.970118 147.255902 4.448189 -2.279900 -32.116693 -5.398010 -2.009864 -3.330597 10.847031 -5.207728 -1.746946 144.432848 -89.329867 -170.036414 -0.402359 10.359110 31.087619 30.556696 -47.702704 -29.690527 -112.472583 67.306441 -103.504188 -1.733328 -3.222911 7.028197 0.075950 -0.838325 0.229138 -11.739624 -51.950907 14.664356 113.191722 78.803982 110.817280 -3.647310 -11.281453 -5.007919 0.283930 0.814584 0.090622
-23.992674 48.247903 28.646468 176.013717 -31.826288 -1.673430 -1.027271 12.433533 2.142772 -0.753996 7.083668 1.741481 -0.882592 8.902415 2.140171 -0.740478 7.103476 1.730791 -1.553075 23.110007 -1.892500 -2.287839 7.124300 -3.003383 8.249428 1.824975 -2.864086 0.257026 -9.017629 -5.268962 -133.413212 -84.992562 146.607138 4.400858 -2.317504 -32.207549 -5.445390 -2.042092 -3.339324 10.899159 -5.258845 -1.736422 134.828932 -89.256155 -160.450456 -0.331039 10.258478 31.034983 30.676378 -47.717600 -29.766336 -112.478078 67.263627 -103.542395 -1.727588 -3.197629 6.994509 0.051837 -0.854474 0.242880 -11.760376 -51.958275 14.626577 112.921472 78.787232 110.526917 -3.669763 -11.301977 -5.042246 0.299620 0.851596 0.098208
-23.973015 48.249144 28.652005 176.037417 -31.744798 -1.668369 -1.011500 12.419485 2.111674 -0.722522 7.115069 1.713841 -0.871234 8.896888 2.132250 -0.722579 7.115055 1.713904 -1.587662 23.053978 -1.853601 -2.377031 7.006023 -2.925070 8.196690 1.718527 -2.872781 0.233683 -8.838977 -5.255904 -132.841301 -84.999659 146.007668 4.355914 -2.341836 -32.283557 -5.503122 -2.085283 -3.349474 10.952068 -5.300724 -1.733143 122.995532 -89.153913 -148.659770 -0.250487 10.173339 31.029119 30.760751 -47.792031 -29.820131 -112.492116 67.210888 -103.566939 -1.743533 -3.184359 6.956236 0.060784 -0.861285 0.252565 -11.806626 -52.029325 14.641600 112.770715 78.779456 110.392330 -3.682327 -11.292821 -5.075206 0.312167 0.859118 0.107118
-23.951179 48.252644 28.652600 176.035931 -31.690499 -1.671787 -0.973167 12.432386 2.101186 -0.703229 7.126639 1.697083 -0.847293 8.911284 2.111695 -0.703218 7.126560 1.697142 -1.615998 22.973177 -1.774506 -2.484534 6.928358 -2.876754 8.143195 1.611925 -2.889150 0.201853 -8.676578 -5.236088 -132.356088 -84.995954 145.525681 4.315973 -2.361429 -32.336075 -5.564399 -2.150074 -3.337603 11.003723 -5.317327 -1.758128 111.645999 -89.004245 -137.372343 -0.168761 10.103779 31.067188 30.825869 -47.857252 -29.825774 -112.509309 67.163182 -103.597750 -1.759652 -3.156979 6.938215 0.067158 -0.883717 0.243273 -11.913582 -52.050616 14.727949 112.628322 78.767847 110.247047 -3.726602 -11.294742 -5.142502 0.355595 0.869333 0.132167
-23.936055 48.256980 28.649367 176.022387 -31.650667 -1.639505 -0.950543 12.425234 2.067833 -0.672824 7.169938 1.668603 -0.824468 8.924785 2.091423 -0.684684 7.137447 1.680622 -1.641204 22.897318 -1.699356 -2.617551 6.857966 -2.818774 8.091777 1.504609 -2.910411 0.164836 -8.525677 -5.213341 -132.005003 -84.983007 145.206679 4.290727 -2.381894 -32.355906 -5.621273 -2.223483 -3.331121 11.046069 -5.322111 -1.788114 102.427114 -88.806184 -128.226867 -0.087885 10.043039 31.130717 30.913676 -47.895005 -29.858966 -112.523739 67.140185 -103.644068 -1.779094 -3.124389 6.953385 0.057775 -0.909378 0.229059 -11.986004 -52.060766 14.784283 112.591829 78.771228 110.161570 -3.731743 -11.294969 -5.154240 0.359863 0.870947 0.129888
-23.925987 48.261112 28.644388 176.018319 -31.612294 -1.594225 -0.920975 12.465907 2.003320 -0.662623 7.162517 1.659185 -0.803626 8.936319 2.072135 -0.667771 7.146815 1.664993 -1.690995 22.854152 -1.668581 -2.750336 6.774569 -2.722254 8.039952 1.396191 -2.936646 0.132701 -8.379873 -5.190419 -131.874759 -84.964801 145.127993 4.286529 -2.405132 -32.343256 -5.676660 -2.299674 -3.331760 11.078652 -5.315542 -1.818495 95.682378 -88.567453 -121.563985 -0.013154 9.985334 31.198763 31.000525 -47.921654 -29.913921 -112.566100 67.164919 -103.732055 -1.828000 -3.097839 7.006261 0.032214 -0.932992 0.214248 -12.037496 -52.078192 14.810141 112.595578 78.778354 110.107843 -3.730300 -11.285754 -5.155444 0.354076 0.861767 0.129177
-23.913318 48.264261 28.640298 176.012661 -31.563191 -1.576806 -0.893891 12.478988 1.972191 -0.648587 7.169765 1.644829 -0.805485 8.906628 2.084488 -0.637004 7.193523 1.615986 -1.804671 22.853679 -1.685107 -2.852282 6.667375 -2.598111 7.992826 1.292921 -2.913475 0.116913 -8.241787 -5.226638 -131.998062 -84.945158 145.308114 4.299807 -2.435001 -32.307943 -5.728110 -2.376192 -3.285451 11.097789 -5.286366 -1.897107 91.029540 -88.306167 -116.992793 0.047803 9.927338 31.248455 31.060074 -47.971682 -29.944768 -112.613067 67.172240 -103.803066 -1.863260 -3.091846 7.000314 0.029562 -0.947132 0.199318 -12.134902 -52.100638 14.889480 112.589857 78.774781 110.052803 -3.749798 -11.285318 -5.174269 0.363626 0.859714 0.134070
-23.901011 48.265290 28.639236 176.000980 -31.488367 -1.567342 -0.879746 12.419681 1.965565 -0.624482 7.221932 1.615047 -0.776602 8.934498 2.051357 -0.631414 7.179864 1.619386 -1.906199 22.833889 -1.667193 -2.997037 6.596244 -2.503366 7.950622 1.193558 -2.896598 0.112520 -8.110157 -5.269899 -132.306552 -84.926913 145.674450 4.328388 -2.476887 -32.261548 -5.791875 -2.458395 -3.319390 11.107118 -5.253700 -1.897209 87.900620 -88.052797 -113.933549 0.091305 9.866385 31.253810 31.122216 -48.049325 -29.987914 -112.657032 67.173215 -103.858681 -1.893970 -3.099577 6.978584 0.034100 -0.948995 0.187587 -12.253000 -52.147232 14.997764 112.641219 78.788241 110.051641 -3.746358 -11.298165 -5.194530 0.374217 0.869480 0.136996
-23.887469 48.268498 28.634936 175.992733 -31.433878 -1.576458 -0.851320 12.426615 1.962784 -0.615120 7.226279 1.604327 -0.751940 8.961325 2.019126 -0.625931 7.167068 1.621952 -1.999581 22.807710 -1.637217 -3.172956 6.547623 -2.424339 7.889803 1.067383 -3.024102 0.119570 -8.015621 -5.125684 -132.626614 -84.992088 146.067403 4.369943 -2.531732 -32.215710 -5.861877 -2.548160 -3.349669 11.109205 -5.195209 -1.905085 86.027944 -87.838005 -112.104659 0.119944 9.809596 31.192767 31.149315 -48.114406 -30.000872 -112.701287 67.175458 -103.905721 -1.912530 -3.096366 6.948462 0.041675 -0.968813 0.139685 -12.334243 -52.183184 15.078837 112.671303 78.801313 110.079969 -3.753636 -11.293770 -5.236531 0.401038 0.858543 0.154959
